<mxfile host="app.diagrams.net" agent="Mozilla/5.0 (X11; Linux x86_64) AppleWebKit/537.36 (KHTML, like Gecko) Chrome/132.0.0.0 Safari/537.36" version="26.1.0">
  <diagram name="Page-1" id="miXXF--SO5p6ja4wLEVv">
    <mxGraphModel dx="1368" dy="788" grid="1" gridSize="10" guides="1" tooltips="1" connect="1" arrows="1" fold="1" page="1" pageScale="1" pageWidth="850" pageHeight="1100" math="0" shadow="0">
      <root>
        <mxCell id="0" />
        <mxCell id="1" parent="0" />
        <mxCell id="nfBJNzaAcI5PB4Vb00md-9" value="&lt;span style=&quot;color: rgb(0, 0, 0); font-family: Helvetica; font-size: 12px; font-style: normal; font-variant-ligatures: normal; font-variant-caps: normal; font-weight: 400; letter-spacing: normal; orphans: 2; text-align: center; text-indent: 0px; text-transform: none; widows: 2; word-spacing: 0px; -webkit-text-stroke-width: 0px; white-space: normal; background-color: rgb(251, 251, 251); text-decoration-thickness: initial; text-decoration-style: initial; text-decoration-color: initial; display: inline !important; float: none;&quot;&gt;domain&lt;/span&gt;" style="swimlane;whiteSpace=wrap;html=1;" vertex="1" parent="1">
          <mxGeometry x="50" y="210" width="220" height="100" as="geometry" />
        </mxCell>
        <mxCell id="nfBJNzaAcI5PB4Vb00md-10" value="API Interface" style="text;html=1;align=center;verticalAlign=middle;resizable=0;points=[];autosize=1;strokeColor=none;fillColor=none;" vertex="1" parent="nfBJNzaAcI5PB4Vb00md-9">
          <mxGeometry y="24" width="90" height="30" as="geometry" />
        </mxCell>
        <mxCell id="nfBJNzaAcI5PB4Vb00md-11" value="- kandir feha suspend function&amp;nbsp;&lt;div style=&quot;text-align: left;&quot;&gt;(async)&amp;nbsp;&lt;span style=&quot;background-color: transparent; color: light-dark(rgb(0, 0, 0), rgb(255, 255, 255));&quot;&gt;li kidiro APIcalls&lt;/span&gt;&lt;/div&gt;" style="text;html=1;align=center;verticalAlign=middle;resizable=0;points=[];autosize=1;strokeColor=none;fillColor=none;" vertex="1" parent="nfBJNzaAcI5PB4Vb00md-9">
          <mxGeometry x="-8" y="54" width="190" height="40" as="geometry" />
        </mxCell>
        <mxCell id="nfBJNzaAcI5PB4Vb00md-12" value="&lt;span style=&quot;font-weight: 400;&quot;&gt;models&lt;/span&gt;" style="swimlane;whiteSpace=wrap;html=1;" vertex="1" parent="1">
          <mxGeometry x="290" y="210" width="220" height="100" as="geometry" />
        </mxCell>
        <mxCell id="nfBJNzaAcI5PB4Vb00md-13" value="data classes" style="text;html=1;align=center;verticalAlign=middle;resizable=0;points=[];autosize=1;strokeColor=none;fillColor=none;" vertex="1" parent="nfBJNzaAcI5PB4Vb00md-12">
          <mxGeometry y="24" width="90" height="30" as="geometry" />
        </mxCell>
        <mxCell id="nfBJNzaAcI5PB4Vb00md-14" value="- kandir feha data classes dial&amp;nbsp;&lt;div&gt;ay haja : posts, movie ...&lt;/div&gt;" style="text;html=1;align=left;verticalAlign=middle;resizable=0;points=[];autosize=1;strokeColor=none;fillColor=none;" vertex="1" parent="nfBJNzaAcI5PB4Vb00md-12">
          <mxGeometry x="6" y="54" width="190" height="40" as="geometry" />
        </mxCell>
        <mxCell id="nfBJNzaAcI5PB4Vb00md-15" value="&lt;span style=&quot;font-weight: 400;&quot;&gt;navigation&lt;/span&gt;" style="swimlane;whiteSpace=wrap;html=1;" vertex="1" parent="1">
          <mxGeometry x="530" y="210" width="220" height="100" as="geometry" />
        </mxCell>
        <mxCell id="nfBJNzaAcI5PB4Vb00md-16" value="NavHost" style="text;html=1;align=center;verticalAlign=middle;resizable=0;points=[];autosize=1;strokeColor=none;fillColor=none;" vertex="1" parent="nfBJNzaAcI5PB4Vb00md-15">
          <mxGeometry x="10" y="24" width="70" height="30" as="geometry" />
        </mxCell>
        <mxCell id="nfBJNzaAcI5PB4Vb00md-17" value="- kan identifier navController&amp;nbsp;&lt;div&gt;w lcomposables ...&lt;/div&gt;" style="text;html=1;align=left;verticalAlign=middle;resizable=0;points=[];autosize=1;strokeColor=none;fillColor=none;" vertex="1" parent="nfBJNzaAcI5PB4Vb00md-15">
          <mxGeometry x="6" y="54" width="180" height="40" as="geometry" />
        </mxCell>
        <mxCell id="nfBJNzaAcI5PB4Vb00md-20" value="&lt;span style=&quot;font-weight: 400;&quot;&gt;pagination&lt;/span&gt;" style="swimlane;whiteSpace=wrap;html=1;" vertex="1" parent="1">
          <mxGeometry x="50" y="328" width="220" height="110" as="geometry" />
        </mxCell>
        <mxCell id="nfBJNzaAcI5PB4Vb00md-21" value="infinite scroll" style="text;html=1;align=center;verticalAlign=middle;resizable=0;points=[];autosize=1;strokeColor=none;fillColor=none;" vertex="1" parent="nfBJNzaAcI5PB4Vb00md-20">
          <mxGeometry y="24" width="90" height="30" as="geometry" />
        </mxCell>
        <mxCell id="nfBJNzaAcI5PB4Vb00md-22" value="- kolma l user kiscroller kanzid&lt;div&gt;&amp;nbsp;nloadi lcontent&lt;/div&gt;" style="text;html=1;align=left;verticalAlign=middle;resizable=0;points=[];autosize=1;strokeColor=none;fillColor=none;" vertex="1" parent="nfBJNzaAcI5PB4Vb00md-20">
          <mxGeometry x="6" y="54" width="180" height="40" as="geometry" />
        </mxCell>
        <mxCell id="nfBJNzaAcI5PB4Vb00md-23" value="&lt;span style=&quot;font-weight: 400;&quot;&gt;screens&lt;/span&gt;" style="swimlane;whiteSpace=wrap;html=1;" vertex="1" parent="1">
          <mxGeometry x="290" y="328" width="220" height="110" as="geometry" />
        </mxCell>
        <mxCell id="nfBJNzaAcI5PB4Vb00md-24" value="screens" style="text;html=1;align=center;verticalAlign=middle;resizable=0;points=[];autosize=1;strokeColor=none;fillColor=none;" vertex="1" parent="nfBJNzaAcI5PB4Vb00md-23">
          <mxGeometry x="10" y="24" width="70" height="30" as="geometry" />
        </mxCell>
        <mxCell id="nfBJNzaAcI5PB4Vb00md-25" value="- front ends, user intefaces" style="text;html=1;align=left;verticalAlign=middle;resizable=0;points=[];autosize=1;strokeColor=none;fillColor=none;" vertex="1" parent="nfBJNzaAcI5PB4Vb00md-23">
          <mxGeometry x="6" y="59" width="170" height="30" as="geometry" />
        </mxCell>
        <mxCell id="nfBJNzaAcI5PB4Vb00md-26" value="&lt;span style=&quot;font-weight: 400;&quot;&gt;utils&lt;/span&gt;" style="swimlane;whiteSpace=wrap;html=1;" vertex="1" parent="1">
          <mxGeometry x="530" y="328" width="220" height="110" as="geometry" />
        </mxCell>
        <mxCell id="nfBJNzaAcI5PB4Vb00md-27" value="ay haja util" style="text;html=1;align=center;verticalAlign=middle;resizable=0;points=[];autosize=1;strokeColor=none;fillColor=none;" vertex="1" parent="nfBJNzaAcI5PB4Vb00md-26">
          <mxGeometry x="5" y="24" width="80" height="30" as="geometry" />
        </mxCell>
        <mxCell id="nfBJNzaAcI5PB4Vb00md-28" value="- generalement l retrofit instance" style="text;html=1;align=left;verticalAlign=middle;resizable=0;points=[];autosize=1;strokeColor=none;fillColor=none;" vertex="1" parent="nfBJNzaAcI5PB4Vb00md-26">
          <mxGeometry x="6" y="59" width="200" height="30" as="geometry" />
        </mxCell>
        <mxCell id="nfBJNzaAcI5PB4Vb00md-29" value="&lt;span style=&quot;font-weight: 400;&quot;&gt;viewModel&lt;/span&gt;" style="swimlane;whiteSpace=wrap;html=1;" vertex="1" parent="1">
          <mxGeometry x="50" y="450" width="236" height="150" as="geometry" />
        </mxCell>
        <mxCell id="nfBJNzaAcI5PB4Vb00md-30" value="repositori" style="text;html=1;align=center;verticalAlign=middle;resizable=0;points=[];autosize=1;strokeColor=none;fillColor=none;" vertex="1" parent="nfBJNzaAcI5PB4Vb00md-29">
          <mxGeometry x="10" y="24" width="70" height="30" as="geometry" />
        </mxCell>
        <mxCell id="nfBJNzaAcI5PB4Vb00md-31" value="- kandir l API calls direct w nrajae data" style="text;html=1;align=left;verticalAlign=middle;resizable=0;points=[];autosize=1;strokeColor=none;fillColor=none;" vertex="1" parent="nfBJNzaAcI5PB4Vb00md-29">
          <mxGeometry x="6" y="47" width="230" height="30" as="geometry" />
        </mxCell>
        <mxCell id="nfBJNzaAcI5PB4Vb00md-32" value="viewModel" style="text;html=1;align=center;verticalAlign=middle;resizable=0;points=[];autosize=1;strokeColor=none;fillColor=none;" vertex="1" parent="nfBJNzaAcI5PB4Vb00md-29">
          <mxGeometry x="10" y="83" width="80" height="30" as="geometry" />
        </mxCell>
        <mxCell id="nfBJNzaAcI5PB4Vb00md-34" value="katdir viewModel class w katdir&amp;nbsp;&lt;div&gt;logic dial l application&lt;/div&gt;" style="text;html=1;align=left;verticalAlign=middle;resizable=0;points=[];autosize=1;strokeColor=none;fillColor=none;" vertex="1" parent="nfBJNzaAcI5PB4Vb00md-29">
          <mxGeometry x="6" y="100" width="190" height="40" as="geometry" />
        </mxCell>
      </root>
    </mxGraphModel>
  </diagram>
</mxfile>
